<?xml version="1.0" encoding="UTF-8" standalone="no"?>
<!-- Created with Inkscape (http://www.inkscape.org/) -->

<svg
   xmlns:dc="http://purl.org/dc/elements/1.1/"
   xmlns:cc="http://creativecommons.org/ns#"
   xmlns:rdf="http://www.w3.org/1999/02/22-rdf-syntax-ns#"
   xmlns:svg="http://www.w3.org/2000/svg"
   xmlns="http://www.w3.org/2000/svg"
   xmlns:sodipodi="http://sodipodi.sourceforge.net/DTD/sodipodi-0.dtd"
   xmlns:inkscape="http://www.inkscape.org/namespaces/inkscape"
   version="1.1"
   id="svg2"
   width="237.39603"
   height="140.43372"
   viewBox="0 0 237.39602 140.43372"
   sodipodi:docname="wrench.svg"
   inkscape:version="0.92.2 (5c3e80d, 2017-08-06)">
  <metadata
     id="metadata8">
    <rdf:RDF>
      <cc:Work
         rdf:about="">
        <dc:format>image/svg+xml</dc:format>
        <dc:type
           rdf:resource="http://purl.org/dc/dcmitype/StillImage" />
        <dc:title></dc:title>
      </cc:Work>
    </rdf:RDF>
  </metadata>
  <defs
     id="defs6" />
  <sodipodi:namedview
     pagecolor="#ffffff"
     bordercolor="#666666"
     borderopacity="1"
     objecttolerance="10"
     gridtolerance="10"
     guidetolerance="10"
     inkscape:pageopacity="0"
     inkscape:pageshadow="2"
     inkscape:window-width="1600"
     inkscape:window-height="1171"
     id="namedview4"
     showgrid="false"
     fit-margin-top="0"
     fit-margin-left="0"
     fit-margin-right="0"
     fit-margin-bottom="0"
     inkscape:zoom="2.6074563"
     inkscape:cx="35.44757"
     inkscape:cy="81.471829"
     inkscape:window-x="0"
     inkscape:window-y="0"
     inkscape:window-maximized="1"
     inkscape:current-layer="svg2"
     inkscape:snap-global="false"
     showguides="false" />
  <path
     style="fill:#000000;fill-rule:evenodd;stroke:#000000;stroke-width:1px;stroke-linecap:butt;stroke-linejoin:miter;stroke-opacity:1"
     d="M 0.5,13.931169 C 7.888607,4.6148944 15.743043,0.38255735 34.672113,0.50248035 53.601184,0.62240335 67.846208,29.713579 85.487923,45.182039 L 235.05898,111.53023 c 5.61073,18.8791 -2.25598,25.77826 -14.95711,28.38015 L 80.885736,73.945709 c -18.015178,-3.9721 -34.699716,-5.42631 -49.665263,0.76703 V 27.923841 L 22.591374,17.608636 H 0.5 Z"
     id="path817"
     inkscape:connector-curvature="0"
     sodipodi:nodetypes="czccccccccc" />
  <path
     style="fill:#000000;fill-rule:evenodd;stroke:#000000;stroke-width:1px;stroke-linecap:butt;stroke-linejoin:miter;stroke-opacity:1"
     d="m 27.577076,33.484819 -5.752733,5.23361 H 0.5 v 2.98306 c 6.252638,9.2101 10.931724,15.51622 27.077076,19.77996 z"
     id="path819"
     inkscape:connector-curvature="0"
     sodipodi:nodetypes="cccccc" />
  <rect
     style="opacity:1;fill:#ffffff;fill-opacity:1;stroke:none;stroke-width:4;stroke-linecap:round;stroke-linejoin:round;stroke-miterlimit:4;stroke-dasharray:none;stroke-dashoffset:0;stroke-opacity:1"
     id="rect902"
     width="18.88814"
     height="22.052143"
     x="43.233559"
     y="36.298409"
     rx="2"
     ry="2" />
  <g
     id="g912"
     transform="translate(-49.790308,-76.336291)">
    <path
       id="path832-4-3-5"
       style="fill:#000000;fill-rule:evenodd;stroke:#000000;stroke-width:1px;stroke-linecap:butt;stroke-linejoin:miter;stroke-opacity:1"
       d="m 106.28345,139.21294 v -4.05001 c 1.62303,-1.05537 5.93873,-2.02914 0,-3.31365 v -3.66655 c 1.52109,-0.67191 5.93873,-1.64567 0,-2.93017 v -4.05002 c 1.62303,-1.05539 5.93873,-2.02915 0,-3.31365 v -4.05001 c 1.62303,-1.05537 5.93873,-2.02914 0,-3.31365 v -3.66655 c 1.52109,-0.67191 5.93873,-1.6054 0,-2.8899 h -4.43611 l -3.860823,3.23515 c -5.938729,1.2845 -1.521086,2.25826 0,2.93017 v 3.66655 c -5.938729,1.28451 -1.623028,2.25828 0,3.31365 v 4.05001 c -5.938729,1.2845 -1.623028,2.25826 0,3.31365 v 4.05002 c -5.938729,1.2845 -1.521086,2.25826 0,2.93017 v 3.66655 c -5.938729,1.28451 -1.623028,2.25828 0,3.31365 v 4.05001 c -5.938729,1.2845 -1.43127,0.91596 4.340223,0.33364 5.7715,-2.6931 9.89544,-2.32456 3.95671,-3.60906 z"
       inkscape:connector-curvature="0"
       sodipodi:nodetypes="ccccccccccccccccccccccccc" />
  </g>
  <path
     id="path832-4-3-5-7"
     style="fill:#000000;fill-rule:evenodd;stroke:#000000;stroke-width:1px;stroke-linecap:butt;stroke-linejoin:miter;stroke-opacity:1"
     d="m 43.11371,23.209929 v 4.05002 c 5.938729,1.284501 1.521086,2.258261 0,2.930171 v 3.66655 c 5.938729,1.28451 1.623028,2.25828 0,3.31365 v 4.05001 c 5.938729,1.2845 1.623028,2.25826 0,3.31365 V 48.584 c 5.938729,1.2845 1.521086,2.25826 0,2.93017 v 3.66655 c 5.938729,1.28451 1.623028,2.25828 0,3.31365 v 4.05001 c 5.938729,1.2845 1.623028,2.25826 0,3.31365"
     inkscape:connector-curvature="0"
     sodipodi:nodetypes="ccccccccccccc" />
  <circle
     style="opacity:1;fill:#ffffff;fill-opacity:1;stroke:none;stroke-width:4;stroke-linecap:round;stroke-linejoin:round;stroke-miterlimit:4;stroke-dasharray:none;stroke-dashoffset:0;stroke-opacity:1"
     id="path942"
     cx="222.48441"
     cy="124.01997"
     r="7.5932202" />
</svg>
